<svg width="375" height="812" viewBox="0 0 375 812" fill="none" xmlns="http://www.w3.org/2000/svg">
<rect width="375" height="812" fill="#38383F"/>
<g clip-path="url(#clip0)">
<mask id="mask0" style="mask-type:alpha" maskUnits="userSpaceOnUse" x="128" y="390" width="121" height="32">
<path d="M229.09 421H229.715V418.107H229.726L230.765 421H231.306L232.345 418.107H232.356V421H232.981V417.251H232.067L231.059 420.186H231.048L230.014 417.251H229.09V421H229.09ZM225.631 417.818H226.817V421H227.473V417.818H228.665V417.251H225.631V417.818H225.631ZM218.003 421L248.003 391H229.947L199.948 421H218.004H218.003ZM213.702 404.065H177.385C166.317 404.065 164.38 404.652 159.639 409.393C155.205 413.826 148.003 421.001 148.003 421.001H163.735L167.488 417.247C169.955 414.78 171.228 414.524 176.409 414.524H203.243L213.701 404.065L213.702 404.065ZM159.155 407.253C155.88 410.343 148.756 417.263 144.916 421H128.003C128.003 421 141.555 407.487 149.088 400.072C156.848 392.685 160.717 391 174.952 391H226.768L215.549 402.219H176.005C166.003 402.219 163.756 402.912 159.156 407.253L159.155 407.253Z" fill="white"/>
</mask>
<g mask="url(#mask0)">
<path d="M229.09 421H229.715V418.107H229.726L230.765 421H231.306L232.345 418.107H232.356V421H232.981V417.251H232.067L231.059 420.186H231.048L230.014 417.251H229.09V421H229.09ZM225.631 417.818H226.817V421H227.473V417.818H228.665V417.251H225.631V417.818H225.631ZM218.003 421L248.003 391H229.947L199.948 421H218.004H218.003ZM213.702 404.065H177.385C166.317 404.065 164.38 404.652 159.639 409.393C155.205 413.826 148.003 421.001 148.003 421.001H163.735L167.488 417.247C169.955 414.78 171.228 414.524 176.409 414.524H203.243L213.701 404.065L213.702 404.065ZM159.155 407.253C155.88 410.343 148.756 417.263 144.916 421H128.003C128.003 421 141.555 407.487 149.088 400.072C156.848 392.685 160.717 391 174.952 391H226.768L215.549 402.219H176.005C166.003 402.219 163.756 402.912 159.156 407.253L159.155 407.253Z" fill="white"/>
</g>
</g>
<defs>
<clipPath id="clip0">
<rect width="120" height="30" fill="white" transform="translate(128 391)"/>
</clipPath>
</defs>
</svg>
